<svg width="112" height="112" viewBox="0 0 112 112" fill="none" xmlns="http://www.w3.org/2000/svg">
<circle opacity="0.2" cx="56" cy="56" r="56" fill="#E1FF41"/>
<circle opacity="0.5" cx="56" cy="56" r="48" fill="#E1FF41"/>
<circle cx="56" cy="56" r="40" fill="#E1FF41"/>
<circle cx="56" cy="56" r="32" fill="#1E1E1E"/>
<path d="M56.4444 57.8889V61M48.6667 50.9337C49.4 50.8889 50.304 50.8889 51.4667 50.8889H61.4222C62.5848 50.8889 63.4889 50.8889 64.2222 50.9337M48.6667 50.9337C47.7515 50.9895 47.1022 51.1152 46.548 51.3976C45.67 51.8449 44.956 52.5588 44.5086 53.4369C44 54.4352 44 55.7419 44 58.3556V60.5333C44 63.147 44 64.4536 44.5086 65.452C44.956 66.3301 45.67 67.044 46.548 67.4913C47.5463 68 48.8531 68 51.4667 68H61.4222C64.0359 68 65.3425 68 66.3409 67.4913C67.219 67.044 67.9328 66.3301 68.3802 65.452C68.8889 64.4536 68.8889 63.147 68.8889 60.5333V58.3556C68.8889 55.7419 68.8889 54.4352 68.3802 53.4369C67.9328 52.5588 67.219 51.8449 66.3409 51.3976C65.7866 51.1152 65.1374 50.9895 64.2222 50.9337M48.6667 50.9337V47.7778C48.6667 43.4822 52.1489 40 56.4444 40C60.74 40 64.2222 43.4822 64.2222 47.7778V50.9337" stroke="#F0F0F0" stroke-width="3" stroke-linecap="round" stroke-linejoin="round"/>
</svg>
