<svg width="26" height="32" viewBox="0 0 26 32" fill="none" xmlns="http://www.w3.org/2000/svg">
<path d="M4.34995 14.0524H20.9141C21.0384 14.0524 21.1542 13.9745 21.1985 13.8566C21.244 13.7387 21.2137 13.6057 21.1196 13.5202L13.9241 7.05054C13.7023 6.8515 13.4449 6.71953 13.1756 6.64165V4.54099L16.5753 2.98766C16.7019 2.92925 16.7819 2.80377 16.7819 2.66423C16.7819 2.52469 16.7019 2.39922 16.5753 2.3408L13.1756 0.787479V0.540851C13.1756 0.242301 12.9333 0 12.6347 0C12.3362 0 12.0939 0.242301 12.0939 0.540851V6.64165C11.8234 6.72062 11.566 6.8515 11.3453 7.05054L4.1455 13.5213C4.0514 13.6057 4.02003 13.7398 4.06546 13.8577C4.11089 13.9756 4.22447 14.0524 4.34995 14.0524Z" fill="#EFEFEF"/>
<path d="M25.2291 30.65L21.2614 15.173H4.00284L0.0340714 30.65C-0.0492197 30.9735 0.0221726 31.3174 0.226614 31.5803C0.431056 31.8442 0.746913 32 1.08116 32H8.80884C9.00679 32 9.18419 31.8788 9.25666 31.695L12.1838 24.2745C12.2551 24.0895 12.4336 23.9694 12.6316 23.9694C12.8295 23.9694 13.008 24.0895 13.0794 24.2745L16.0086 31.695C16.08 31.8788 16.2574 32 16.4565 32H24.1852C24.5206 32 24.8364 31.8442 25.0398 31.5803C25.2431 31.3174 25.3135 30.9735 25.2291 30.65Z" fill="#EFEFEF"/>
</svg>
