<svg width="112" height="112" viewBox="0 0 112 112" fill="none" xmlns="http://www.w3.org/2000/svg">
<circle cx="56" cy="56" r="40" fill="#E1FF41"/>
<circle opacity="0.5" cx="56" cy="56" r="48" fill="#E1FF41"/>
<circle opacity="0.2" cx="56" cy="56" r="56" fill="#E1FF41"/>
<path d="M52.4769 29.2387C54.4082 27.5871 57.571 27.5871 59.5302 29.2387L63.9526 33.0457C64.7922 33.7735 66.3597 34.3614 67.4792 34.3614H72.2374C75.2043 34.3614 77.6394 36.7968 77.6394 39.764V44.5228C77.6394 45.6146 78.2272 47.2102 78.9549 48.05L82.7615 52.4729C84.4128 54.4044 84.4128 57.5676 82.7615 59.5271L78.9549 63.95C78.2272 64.7898 77.6394 66.3574 77.6394 67.4771V72.236C77.6394 75.2032 75.2043 77.6386 72.2374 77.6386H67.4792C66.3876 77.6386 64.7922 78.2264 63.9526 78.9543L59.5302 82.7613C57.599 84.4129 54.4361 84.4129 52.4769 82.7613L48.0544 78.9543C47.2148 78.2264 45.6473 77.6386 44.5278 77.6386H39.6856C36.7187 77.6386 34.2836 75.2032 34.2836 72.236V67.4492C34.2836 66.3574 33.6959 64.7898 32.9961 63.95L29.2175 59.4992C27.5942 57.5676 27.5942 54.4324 29.2175 52.5009L32.9961 48.05C33.6959 47.2102 34.2836 45.6426 34.2836 44.5508V39.736C34.2836 36.7688 36.7187 34.3334 39.6856 34.3334H44.5278C45.6194 34.3334 47.2148 33.7456 48.0544 33.0177L52.4769 29.2387Z" fill="#1E1E1E"/>
<path d="M52.132 66.2428C51.4923 66.2428 50.8845 65.9869 50.4367 65.539L42.6957 57.7969C41.7681 56.8692 41.7681 55.3336 42.6957 54.4058C43.6234 53.478 45.1588 53.478 46.0865 54.4058L52.132 60.4523L65.8868 46.6958C66.8145 45.7681 68.3499 45.7681 69.2776 46.6958C70.2052 47.6236 70.2052 49.1592 69.2776 50.0869L53.8274 65.539C53.3796 65.9869 52.7718 66.2428 52.132 66.2428Z" fill="#F0F0F0"/>
</svg>
